<svg xmlns="http://www.w3.org/2000/svg" viewBox="0 0 100 100" width="300" height="300">

  <!-- Foam -->
  <rect x="0" y="0" width="100" height="15" fill="white" opacity="0.7"/>

  <!-- Foam bubbles -->
  <circle cx="15" cy="7.5" r="1" fill="white" opacity="0.5" />
  <circle cx="25" cy="9" r="1" fill="white" opacity="0.5" />
  <circle cx="35" cy="6" r="1" fill="white" opacity="0.5" />
  <circle cx="45" cy="8" r="1" fill="white" opacity="0.5" />
  <circle cx="55" cy="10" r="1" fill="white" opacity="0.5" />
  <circle cx="65" cy="7" r="1" fill="white" opacity="0.5" />
  <circle cx="75" cy="9" r="1" fill="white" opacity="0.5" />
  <circle cx="85" cy="6.5" r="1" fill="white" opacity="0.5" />
  <circle cx="20" cy="4" r="1" fill="white" opacity="0.5" />
  <circle cx="30" cy="2" r="1" fill="white" opacity="0.5" />
  <circle cx="40" cy="3.5" r="1" fill="white" opacity="0.5" />
  <circle cx="50" cy="1.5" r="1" fill="white" opacity="0.5" />
  <circle cx="60" cy="3.5" r="1" fill="white" opacity="0.5" />
  <circle cx="70" cy="2" r="1" fill="white" opacity="0.5" />
  <circle cx="80" cy="4" r="1" fill="white" opacity="0.5" />
  <circle cx="90" cy="2" r="1" fill="white" opacity="0.5" />
  <circle cx="23" cy="11" r="1" fill="white" opacity="0.5" />
  <circle cx="38" cy="12" r="1" fill="white" opacity="0.5" />
  <circle cx="53" cy="14" r="1" fill="white" opacity="0.5" />
  <circle cx="68" cy="13" r="1" fill="white" opacity="0.5" />
  <circle cx="83" cy="15" r="1" fill="white" opacity="0.5" />
  <circle cx="26" cy="6" r="1" fill="white" opacity="0.5" />
  <circle cx="46" cy="5" r="1" fill="white" opacity="0.5" />
  <circle cx="66" cy="6.5" r="1" fill="white" opacity="0.5" />
  <circle cx="86" cy="5.5" r="1" fill="white" opacity="0.5" />
  <circle cx="29" cy="8" r="1" fill="white" opacity="0.5" />
  <circle cx="49" cy="9.5" r="1" fill="white" opacity="0.5" />
  <circle cx="69" cy="10.5" r="1" fill="white" opacity="0.5" />
  <circle cx="89" cy="8.5" r="1" fill="white" opacity="0.5" />

  <!-- Beer -->
  <rect x="0" y="10" width="100" height="85" fill="#FFD700"/>

  <!-- Beer bubbles -->
  <circle cx="20" cy="20" r="3" fill="white" opacity="0.5"/>
  <circle cx="50" cy="30" r="4" fill="white" opacity="0.6"/>
  <circle cx="80" cy="15" r="3" fill="white" opacity="0.5"/>
  <circle cx="30" cy="40" r="3" fill="white" opacity="0.5"/>
  <circle cx="60" cy="50" r="4" fill="white" opacity="0.6"/>
  <circle cx="90" cy="35" r="3" fill="white" opacity="0.5"/>
  <circle cx="15" cy="65" r="3" fill="white" opacity="0.5"/>
  <circle cx="45" cy="75" r="4" fill="white" opacity="0.6"/>
  <circle cx="75" cy="60" r="3" fill="white" opacity="0.5"/>
  <circle cx="5" cy="90" r="3" fill="white" opacity="0.5"/>
  <circle cx="35" cy="10" r="4" fill="white" opacity="0.6"/>
  <circle cx="65" cy="85" r="3" fill="white" opacity="0.5"/>
  <circle cx="95" cy="70" r="3" fill="white" opacity="0.5"/>
  <circle cx="10" cy="50" r="4" fill="white" opacity="0.6"/>
  <circle cx="40" cy="25" r="3" fill="white" opacity="0.5"/>
</svg>
